<?xml version="1.0" encoding="utf-8"?>
<!-- Generator: Adobe Illustrator 24.3.0, SVG Export Plug-In . SVG Version: 6.00 Build 0)  -->
<svg version="1.1" xmlns="http://www.w3.org/2000/svg" xmlns:xlink="http://www.w3.org/1999/xlink" x="0px" y="0px"
	 viewBox="0 0 594 371" style="enable-background:new 0 0 594 371;" xml:space="preserve">
<style type="text/css">
	.st0{fill:#FFFFFF;}
	.st1{opacity:0.31;}
	.st2{fill:#E4EBF7;}
	.st3{fill:#8E342E;}
	.st4{fill:#9CC191;}
	.st5{fill:#B7D3F3;}
	.st6{fill:#122544;}
	.st7{fill:#D2E3FC;}
	.st8{fill:#82B378;}
	.st9{fill:#A8D29F;}
	.st10{fill:#2B478B;}
	.st11{fill:#EA9E6A;}
	.st12{fill:#D88D59;}
	.st13{fill:#233862;}
	.st14{fill:#B24940;}
	.st15{fill:#C65447;}
	.st16{fill:#F9DDBF;}
	.st17{fill:none;stroke:#4F7EB7;stroke-miterlimit:10;}
	.st18{opacity:0.6;fill:#9ABCED;}
	.st19{fill:#4F7EB7;}
	.st20{opacity:0.71;fill:#7CA6D8;}
	.st21{fill:#EA9BA1;}
	.st22{fill:#9ABCED;}
	.st23{opacity:0.5;}
	.st24{fill:#7CA6D8;}
	.st25{fill:#E83F54;}
	.st26{opacity:0.5;fill:#9ABCED;}
	.st27{fill:#EBF3FA;}
	.st28{fill:#F3F8FC;}
	.st29{opacity:0.6;fill:#EBF3FA;}
	.st30{fill:#E8F0FD;}
	.st31{fill:#C0D8FB;}
	.st32{fill:#DFEBFD;}
	.st33{fill:#DEEDFF;}
	.st34{fill:#2E3552;}
	.st35{fill:#ED7D2B;}
	.st36{fill:#FFB27D;}
	.st37{fill:#ED985F;}
	.st38{fill:#F99746;}
	.st39{fill:#FFC397;}
	.st40{fill:#2C3A64;}
	.st41{fill:#FFFFFF;stroke:#0F22D3;stroke-width:1.6103;stroke-miterlimit:10;}
	.st42{fill:#98B2D8;}
	.st43{fill:#B1C3E8;}
	.st44{fill:#B7CAE5;}
	.st45{fill:#97B3D1;}
	.st46{fill:#CED9EA;}
	.st47{fill:#B6C5DD;}
	.st48{fill:#5D7CA0;}
	.st49{fill:#799CBF;}
	.st50{fill:#F2F4F9;}
	.st51{fill:#C1CFE5;}
	.st52{opacity:0.22;fill:#1F395E;}
	.st53{fill:#FEB19E;}
	.st54{fill:#FF856A;}
	.st55{fill:url(#SVGID_3_);}
	.st56{opacity:0.6;fill:#B1B9C4;}
	.st57{fill:#B1B9C4;}
	.st58{fill:url(#SVGID_4_);}
	.st59{opacity:0.75;}
	.st60{fill:#E8BEA7;}
	.st61{fill:#F9CEB2;}
	.st62{fill:#BAE0B1;}
	.st63{opacity:0.81;}
	.st64{fill:url(#SVGID_5_);}
	.st65{fill:none;stroke:#ED7D2B;stroke-width:2;stroke-linecap:round;stroke-linejoin:round;stroke-miterlimit:10;}
	.st66{fill:#C5E1F9;}
	.st67{fill:none;}
	.st68{fill:#4B3C51;}
	.st69{fill:#00B7D8;}
	.st70{fill:#04A2BC;}
	.st71{fill:#3E3244;}
	.st72{fill:#E8A17E;}
	.st73{fill:#D88D6C;}
	.st74{fill:#161119;}
	.st75{opacity:0.45;fill:#F27B53;}
	.st76{opacity:7.000000e-02;fill:#26476D;}
	.st77{fill:#FFCE45;}
	.st78{opacity:0.11;fill:#345D95;}
	.st79{opacity:0.38;}
	.st80{fill:#FFA748;}
	.st81{fill:#345D95;}
	.st82{fill:#26476D;}
	.st83{opacity:0.27;fill:#26476D;}
	.st84{clip-path:url(#SVGID_7_);}
	.st85{clip-path:url(#SVGID_9_);fill:#606060;}
	.st86{fill:url(#SVGID_10_);}
	.st87{fill:#FFFFFF;stroke:#4F7EB7;stroke-miterlimit:10;}
	.st88{opacity:0.71;}
	.st89{fill:#76BFB7;}
	.st90{fill:#80BC00;}
	.st91{fill:none;stroke:#2E353A;stroke-miterlimit:10;}
	.st92{opacity:0.26;}
	.st93{opacity:0.71;fill:#76BFB7;}
	.st94{fill:url(#SVGID_13_);}
	.st95{fill:url(#SVGID_14_);}
	.st96{opacity:0.71;fill:#80BC00;}
	.st97{opacity:0.71;fill:#80BC00;stroke:#FFFFFF;stroke-width:2;stroke-miterlimit:10;}
	.st98{opacity:0.5;fill:#80BC00;}
	.st99{opacity:0.4;fill:#80BC00;}
	.st100{opacity:0.65;fill:#80BC00;}
	.st101{opacity:0.76;}
	.st102{opacity:0.56;fill:none;stroke:#80BC00;stroke-miterlimit:10;}
	.st103{opacity:0.57;fill:#80BC00;}
	.st104{opacity:0.7;}
	.st105{opacity:0.69;}
	.st106{opacity:0.56;}
	.st107{fill:#C0DD7C;stroke:#80BC00;stroke-width:2;stroke-linecap:round;stroke-linejoin:round;stroke-miterlimit:10;}
	.st108{opacity:0.77;}
	.st109{opacity:0.77;fill:#80BC00;}
	.st110{fill:#DDEDBE;}
	.st111{fill:#A3CD4F;}
	.st112{fill:#81A52B;}
	.st113{clip-path:url(#SVGID_16_);}
	.st114{clip-path:url(#SVGID_18_);fill:#EBF3FA;}
	.st115{clip-path:url(#SVGID_20_);}
	.st116{clip-path:url(#SVGID_22_);fill:#80BC00;}
	.st117{clip-path:url(#SVGID_24_);}
	.st118{opacity:0.4324;clip-path:url(#SVGID_26_);fill:#80BC00;}
	.st119{clip-path:url(#SVGID_28_);}
	.st120{opacity:0.4324;clip-path:url(#SVGID_30_);fill:#80BC00;}
	.st121{fill:#FCFCFC;}
	.st122{fill:url(#SVGID_31_);}
	.st123{fill:url(#SVGID_32_);}
	.st124{fill:url(#SVGID_33_);}
	.st125{fill:url(#SVGID_34_);}
	.st126{fill:#F0C141;}
	.st127{fill:#8F8F8F;}
	.st128{fill:#F0F0F0;}
	.st129{fill:url(#SVGID_35_);}
	.st130{fill:#CCCCCC;}
	.st131{fill:#F5F7FF;}
	.st132{fill:#E6E6E6;}
	.st133{fill:#78C2FF;}
	.st134{fill:#F3F3F3;}
	.st135{fill:url(#SVGID_36_);}
	.st136{fill:url(#SVGID_37_);}
	.st137{fill:url(#SVGID_38_);}
	.st138{fill:url(#SVGID_39_);}
	.st139{fill:url(#SVGID_40_);}
	.st140{fill:url(#SVGID_41_);}
	.st141{fill:#EEA886;}
	.st142{fill:#DB9C7C;}
	.st143{fill:#323657;}
	.st144{fill:#4DA8F2;}
	.st145{fill:#EFAA88;}
	.st146{fill:#424773;}
	.st147{fill:#292C47;}
	.st148{fill:#D88A51;}
	.st149{fill:#E2D2CA;}
	.st150{fill:#DFE1E8;}
	.st151{fill:#DE9673;}
	.st152{fill:#2F4563;}
	.st153{fill:#1E2D40;}
	.st154{fill:#23344A;}
	.st155{fill:#41608A;}
	.st156{fill:#EEA987;}
	.st157{fill:#EB4747;}
	.st158{fill:#464240;}
	.st159{fill:#A77860;}
	.st160{fill:#6E6760;}
	.st161{fill:#5C544D;}
	.st162{fill:#3C4145;}
	.st163{fill:#33373B;}
	.st164{fill:#FCCCA2;}
	.st165{fill:#D6D6D6;}
	.st166{fill:#C98462;}
	.st167{fill:#DE9D7D;}
	.st168{fill:#1D3B54;}
	.st169{fill:#434343;}
	.st170{fill:#CF8C6C;}
	.st171{fill:#EEF0F7;}
	.st172{fill:#E0E0E0;}
	.st173{fill:#B8B8B8;}
	.st174{fill:#D9D9D9;}
	.st175{fill:url(#SVGID_42_);}
	.st176{fill:url(#SVGID_43_);}
	.st177{fill:#C2C3C4;}
	.st178{opacity:0.8;fill:#80BC00;}
	.st179{fill:#E6E7E8;}
	.st180{fill:#1F395E;}
	.st181{fill:#42663A;}
	.st182{fill:#A2DFF2;}
	.st183{fill:#96CFE0;}
	.st184{fill:#F37168;}
	.st185{fill:#2E5B9A;}
	.st186{fill:#F09959;}
	.st187{fill:#E38540;}
	.st188{fill:#75A1DE;}
	.st189{fill:#A86B48;}
	.st190{fill:#3E6BAB;}
	.st191{fill:#F0CEB4;}
	.st192{fill:#F7A96F;}
	.st193{fill:#A8CEFF;}
	.st194{fill:#6695D6;}
	.st195{fill:#303C60;}
	.st196{fill:#D54A41;}
	.st197{opacity:0.5;fill:url(#SVGID_44_);}
	.st198{fill:#9EC8FF;}
	.st199{opacity:0.5;fill:#9EC8FF;}
	.st200{fill:#F39892;}
	.st201{fill:#9CD499;}
	.st202{clip-path:url(#SVGID_46_);fill:#B5D595;}
	.st203{clip-path:url(#SVGID_46_);fill:#D7EDBE;}
	.st204{clip-path:url(#SVGID_46_);fill:#80BC00;}
	.st205{clip-path:url(#SVGID_46_);fill:#B3D766;}
	.st206{clip-path:url(#SVGID_46_);fill:#E7F3FE;}
	.st207{opacity:0.5;fill:#C0D8FB;}
	.st208{fill:#402C28;}
	.st209{fill:#B4D1AE;}
	.st210{fill:#203568;}
	.st211{fill:#F28270;}
	.st212{fill:#608D00;}
	.st213{opacity:0.22;fill:#0B4D9E;}
</style>
<g id="BACKGROUND">
</g>
<g id="OBJECTS">
	<g class="st1">
		<path class="st2" d="M525.4,236c0.1,18.2-1.1,34.9-3.4,49.7c-0.2,1.1-0.3,2.2-0.5,3.3c-1.2,7.2-2.6,13.9-4.3,20.1
			c-0.3,1.1-0.6,2.1-0.9,3.1c-6.3,22.1-15.3,37-24.8,42.5H89.7c0,0-34.3-29.7-41.1-72.1c-0.2-1.1-0.3-2.2-0.5-3.3
			c-2.7-21.1,1.6-45.2,20.1-70.2c8.4-11.4,19.5-19.3,32.3-24.8c1-0.4,2-0.8,3-1.2c18.9-7.4,41.1-9.7,63.4-10.1c1.1,0,2.3,0,3.4,0
			c13.3-0.1,26.5,0.5,39,1c1.2,0.1,2.4,0.1,3.5,0.2c20.3,0.9,38.5,1.5,51.8-0.9h0c1.2-0.2,2.4-0.5,3.5-0.8h0
			c14.7-3.6,21.9-11.9,16.7-29.8c-10.1-34.7,0.2-60.2,22.7-74.2c1.1-0.7,2.3-1.4,3.5-2.1c12.7-6.9,28.8-10.5,46.9-10.5
			c1.3,0,2.6,0,3.9,0.1c15.4,0.5,32.3,3.5,49.8,9.3c9.4,3.1,18.2,7,26.3,11.4c1,0.5,2,1.1,3,1.7c15.9,9.2,29.4,20.8,40.5,34
			c0.8,0.9,1.5,1.8,2.2,2.7C512.6,150.7,525.1,196.7,525.4,236z"/>
	</g>
	<path class="st19" d="M112.4,121H33.6c-3.7,0-6.6-2.1-6.6-4.7V45.4c0-2.6,3-4.7,6.6-4.7h78.7c3.7,0,6.6,2.1,6.6,4.7v70.9
		C119,118.9,116,121,112.4,121z M33.6,42.3c-2.4,0-4.3,1.4-4.3,3.1v70.9c0,1.7,1.9,3.1,4.3,3.1h78.7c2.4,0,4.3-1.4,4.3-3.1V45.4
		c0-1.7-1.9-3.1-4.3-3.1H33.6z"/>
	<g id="XMLID_1_">
		<g>
			<path class="st19" d="M583.5,50.2v62.3c0,3.7-2.8,6.7-6.2,6.7H482c-3.4,0-6.2-3-6.2-6.7V50.2c0-3.7,2.8-6.7,6.2-6.7h95.3
				C580.7,43.5,583.5,46.5,583.5,50.2z M581.9,112.5V50.2c0-2.7-2-4.9-4.6-4.9H482c-2.5,0-4.6,2.2-4.6,4.9v62.3
				c0,2.7,2.1,4.9,4.6,4.9h95.3C579.8,117.4,581.9,115.2,581.9,112.5z"/>
			<path class="st0" d="M581.9,50.2v62.3c0,2.7-2,4.9-4.6,4.9H482c-2.5,0-4.6-2.2-4.6-4.9V50.2c0-2.7,2.1-4.9,4.6-4.9h95.3
				C579.8,45.2,581.9,47.4,581.9,50.2z"/>
		</g>
	</g>
	<g>
		<rect x="38.1" y="68" class="st90" width="6" height="32.8"/>
		<rect x="63.7" y="77.6" class="st90" width="6" height="23.3"/>
		<rect x="76.4" y="68" class="st90" width="6" height="32.8"/>
		<rect x="89.2" y="89.2" class="st90" width="6" height="11.6"/>
		<rect x="50.9" y="58" class="st90" width="6" height="42.8"/>
		<rect x="102" y="77.6" class="st90" width="6" height="23.3"/>
	</g>
	<g>
		<defs>
			<path id="SVGID_45_" d="M528,54.5c-14.5,0-26.2,11.7-26.2,26.2c0,14.5,11.7,26.2,26.2,26.2s26.2-11.7,26.2-26.2
				C554.2,66.2,542.4,54.5,528,54.5z M528,94.6c-7.7,0-13.9-6.2-13.9-13.9c0-7.7,6.2-13.9,13.9-13.9c7.7,0,13.9,6.2,13.9,13.9
				C541.8,88.4,535.6,94.6,528,94.6z"/>
		</defs>
		<clipPath id="SVGID_2_">
			<use xlink:href="#SVGID_45_"  style="overflow:visible;"/>
		</clipPath>
		<path style="clip-path:url(#SVGID_2_);fill:#B5D595;" d="M551.7,95.2L528,80.7l-4.3,27.5C534.8,109.9,545.8,104.7,551.7,95.2z"/>
		<path style="clip-path:url(#SVGID_2_);fill:#D7EDBE;" d="M551.7,95.2c0.1-0.1,0.1-0.2,0.1-0.2c5-8.4,5.2-18.8,0.6-27.4
			c-8.4,4.4-3.4,1.7-24.5,13.1C551.7,95.3,548,93,551.7,95.2z"/>
		<path style="clip-path:url(#SVGID_2_);fill:#80BC00;" d="M501.9,71.1l26.1,9.6l24.4-13.2C541,46.4,510.2,48.9,501.9,71.1z"/>
		<path style="clip-path:url(#SVGID_2_);fill:#B3D766;" d="M523.7,108.2l4.3-27.5l-26.1-9.6C495.7,87.7,506.7,105.5,523.7,108.2z"/>
		<path style="clip-path:url(#SVGID_2_);fill:#E7F3FE;" d="M552.9,94.9c4.7-8.3,5-18.5,0.7-27l0,0l-0.4-0.8c0,0,0,0,0,0l-0.4-0.7
			l0,0c-2.8-4.8-6.7-8.6-11.5-11.1c-4.6-2.4-9.9-3.5-15.3-3.1c-11.1,0.8-20.5,7.6-24.7,17.8l0,0l-0.3,0.9l-0.3,0.9l0,0
			c-2.6,7.8-1.8,16.3,2.4,23.4c4.3,7.3,11.3,12.3,19.5,13.8l0,0l0.9,0.1c0,0,0.9,0.1,0.9,0.1l0,0c1.2,0.1,2.4,0.2,3.5,0.2
			c4.1,0,8.3-0.9,12.1-2.7c4.9-2.3,9-5.8,11.9-10.3l0,0l0.2-0.3c0,0,0.3-0.5,0.3-0.5c0-0.1,0.1-0.2,0.1-0.2l0,0c0,0,0,0,0,0
			L552.9,94.9L552.9,94.9z M550.1,69.8c0.5-0.3,1.2-0.6,1.9-1c3.9,7.9,3.7,17.4-0.7,25.1c0,0-0.2-0.1-0.2-0.1c-1-0.6-1.4-0.8-3.3-2
			l-18.1-11l15-8.1C547,71.5,547.9,71,550.1,69.8z M503.1,70.6C507,61,515.8,54.7,526.2,54c10.3-0.7,19.8,4.3,24.9,13.2l-7.2,3.9
			c-1.5,0.8-3.6,1.9-7.1,3.8c-2.2,1.2-5,2.7-8.6,4.7l-0.2,0.1l-0.7-0.4l0,0.3l-11.4-4.2L503.1,70.6z M504.7,94.2
			c-3.9-6.7-4.7-14.6-2.3-21.9l17.2,6.3l7.3,2.7l-4,25.8C515.3,105.6,508.7,101,504.7,94.2z M524.7,107.4l3.9-25.2l10.2,6.3
			c4.1,2.5,6.5,4,8,4.9l3.5,2.2C544.7,104.1,534.8,108.7,524.7,107.4z"/>
	</g>
	<g id="XMLID_2_">
		<g>
			<path class="st19" d="M444.5,14.2v62.3c0,3.7-2.8,6.7-6.2,6.7H343c-3.4,0-6.2-3-6.2-6.7V14.2c0-3.7,2.8-6.7,6.2-6.7h95.3
				C441.7,7.5,444.5,10.5,444.5,14.2z M442.9,76.5V14.2c0-2.7-2-4.9-4.6-4.9H343c-2.5,0-4.6,2.2-4.6,4.9v62.3c0,2.7,2.1,4.9,4.6,4.9
				h95.3C440.8,81.4,442.9,79.2,442.9,76.5z"/>
			<path class="st0" d="M442.9,14.2v62.3c0,2.7-2,4.9-4.6,4.9H343c-2.5,0-4.6-2.2-4.6-4.9V14.2c0-2.7,2.1-4.9,4.6-4.9h95.3
				C440.8,9.2,442.9,11.4,442.9,14.2z"/>
		</g>
	</g>
	<g>
		<path class="st207" d="M326,155.5c1.1-3.9,1.9-8,2.4-12.1l-12.5-5.6c0.1-1.2,0.1-2.4,0.1-3.6c0-3.3-0.2-6.6-0.7-9.8l12-6.8
			c-0.9-4.1-2.1-8-3.5-11.9l-13.7,0.8c-1.9-4.1-4.2-8-6.8-11.6l7.4-11.6c-2.6-3.2-5.5-6.1-8.6-8.9l-11.8,7.1
			c-3.5-2.7-7.3-5.1-11.4-7.1l1.2-13.7c-3.8-1.6-7.7-2.9-11.8-3.8L261,68.7c-3.8-0.7-7.6-1-11.6-1c-0.6,0-1.2,0-1.8,0L242.3,55
			c-4.2,0.4-8.2,1.1-12.2,2.1l-0.8,13.7c-4.3,1.4-8.4,3.2-12.3,5.4l-10.6-8.8c-3.5,2.2-6.8,4.8-9.8,7.5l5.6,12.5
			c-3.1,3.2-6,6.7-8.4,10.5L180.3,95c-2,3.6-3.8,7.3-5.2,11.2l10.8,8.5c-1.3,4.2-2.2,8.6-2.6,13.2l-13.2,3.7c0,0.8,0,1.6,0,2.4
			c0,3.4,0.2,6.7,0.6,9.9l13.5,2.5c0.8,4.5,2.1,8.8,3.8,12.9l-10,9.5c1.8,3.7,3.9,7.3,6.3,10.7l13.1-4.1c2.8,3.5,5.9,6.7,9.4,9.6
			l-4.4,13c3.3,2.4,6.8,4.6,10.5,6.6l9.7-9.7c4.1,1.8,8.3,3.2,12.8,4.2l2.1,13.6c3.9,0.6,7.9,0.9,12,0.9c0.1,0,0.2,0,0.3,0l4.1-13.1
			c4.6-0.3,9-1.1,13.2-2.2l8.2,11c3.9-1.4,7.7-3,11.3-4.9l-2.5-13.5c3.8-2.4,7.4-5.1,10.7-8.2l12.4,6c2.8-3,5.4-6.2,7.8-9.6
			l-8.5-10.8c2.3-3.8,4.2-7.9,5.7-12.2L326,155.5z M249.5,166.8c-18.1,0-32.7-14.6-32.7-32.7s14.6-32.7,32.7-32.7
			s32.7,14.6,32.7,32.7S267.5,166.8,249.5,166.8z"/>
	</g>
	<g>
		<path class="st207" d="M376.6,222.5c0.2-1.6,0.3-3.1,0.3-4.7c0-0.8,0-1.7-0.1-2.5l-7.8-2.5c-0.5-3.3-1.4-6.5-2.8-9.4l5.2-6.4
			c-1.2-2.1-2.6-4.1-4.1-6l-7.8,2.6c-2.3-2.3-4.9-4.3-7.8-6l0.4-8.2c-2.2-1-4.5-1.8-6.8-2.4l-4.8,6.7c-1.9-0.3-3.8-0.5-5.8-0.5
			c-1.3,0-2.7,0.1-4,0.2l-4.5-6.9c-2.4,0.5-4.7,1.2-7,2.1l0,8.2c-3,1.5-5.7,3.3-8.1,5.5l-7.7-3c-1.6,1.8-3.1,3.7-4.4,5.8l4.9,6.7
			c-1.5,2.9-2.6,6-3.3,9.2l-8,2.1c-0.2,1.6-0.3,3.1-0.3,4.7c0,0.8,0,1.7,0.1,2.5l7.8,2.5c0.5,3.3,1.4,6.5,2.8,9.4l-5.2,6.4
			c1.2,2.1,2.6,4.1,4.1,6l7.8-2.6c2.3,2.3,4.9,4.3,7.8,6l-0.4,8.2c2.2,1,4.5,1.8,6.8,2.4l4.8-6.7c1.9,0.3,3.8,0.5,5.8,0.5
			c1.3,0,2.7-0.1,4-0.2l4.5,6.9c2.4-0.5,4.7-1.2,7-2.1l0-8.2c3-1.5,5.7-3.3,8.1-5.5l7.7,3c1.6-1.8,3.1-3.7,4.4-5.8l-4.9-6.7
			c1.5-2.9,2.6-6,3.3-9.2L376.6,222.5z M334.6,234.3c-9.1,0-16.6-7.4-16.6-16.6c0-9.1,7.4-16.6,16.6-16.6c9.1,0,16.6,7.4,16.6,16.6
			C351.2,226.9,343.7,234.3,334.6,234.3z"/>
	</g>
	<g>
		<path class="st208" d="M80,153.8c21.1-16.3,40.8-7.7,47.9,14.4c6.6,20.7-1.9,65.1-33.3,57.3c-32.5-8-35.2-18-35-32.4
			C59.8,181.6,64.8,165.6,80,153.8z"/>
		<path class="st209" d="M69,219.3l-30.1,11.2c0,0,8.4,61.1,9.1,84.5c0.7,23.4-11.1,43.6-11.1,43.6h78.7c0,0,10.8-63.6,8.7-86
			s-17.1-45.6-17.8-46.1c-0.7-0.6-18.8-4.7-18.8-4.7L69,219.3z"/>
		<path class="st8" d="M122,294.6c0,0,3,28.4,4.3,29.9c1.3,1.4,47.5,24.1,47.5,24.1l-67.2,4.6L122,294.6z"/>
		<path class="st52" d="M106.5,226.5c7.5,0.2,9.5,12.4,11.2,21.4C119.5,257,106.5,226.5,106.5,226.5z"/>
		<path class="st8" d="M93.8,274.8c-4.1-14.7-26.1-55.6-26.1-55.6l-28.8,11.3c0,0,6.6,47.9,8.6,75.1l10.9,53h35.3
			C93.8,358.7,97.9,289.5,93.8,274.8z"/>
		<polygon class="st52" points="53.1,332.8 85.6,325.4 83,353.1 		"/>
		<path class="st52" d="M69.4,340.6c-5.3-7.2-10.5-15.1-5.4-31.5c5-16.5,5.5-22.4,3.8-37.3c-1.8-14.9-9.8-38.8-25.4-39.5
			c0,0-0.5,5.2-1.4,13.6c2.5,19.7,6.6,53.3,7.1,69.3c0.7,23.4-11.1,43.6-11.1,43.6l64,1.4C101,360.1,74.7,347.7,69.4,340.6z"/>
		<path class="st8" d="M124.4,272.7c-2.2-22.4-17.1-45.6-17.8-46.1c-0.4-0.3-7.5-2-12.8-3.3c1.6,3.7,18.1,43.1,17.4,59.4
			c-0.7,17,0,76.1,0,76.1h4.6C115.7,358.7,126.5,295.1,124.4,272.7z"/>
	</g>
	<g>
		<path class="st210" d="M229.6,355.3H90.5c0-4.9,4-8.9,8.9-8.9h130.1V355.3z"/>
		<path class="st210" d="M229.8,355.3h-74.3l31.5-69.4c0.9-2,2.9-3.3,5.2-3.3h67.2c1.6,0,2.7,1.7,2,3.1L229.8,355.3z"/>
		<path class="st10" d="M259.4,282.6H198c-2.2,0-4.2,1.3-5.2,3.3l-31.5,69.4h68.4l31.6-69.6C262.1,284.3,261,282.6,259.4,282.6z"/>
		<path class="st0" d="M224.2,321.2c-2.6,5.4-6.8,8.7-9.4,7.5c-2.6-1.3-2.6-6.6,0-12c2.6-5.4,6.8-8.7,9.4-7.5
			C226.8,310.5,226.8,315.8,224.2,321.2z"/>
	</g>
	<path class="st53" d="M82.3,179.4c0,0-6.3,32.2-13.3,37.9c-7,5.6,16.1,32.9,24,25.9c8-7,0.6-22.2,0.6-22.2s-4.3-2.7,3-19.6
		c7.3-16.9-12.4-29.6-12.4-29.6L82.3,179.4z"/>
	<path class="st54" d="M84.2,171.8l-1.9,7.6c0,0-0.9,4.5-2.3,10.4c2.7,12.7,7.8,21,12.4,26.3c0.1-2.9,1.1-7.5,4.2-14.7
		C103.9,184.4,84.2,171.8,84.2,171.8z"/>
	<path class="st53" d="M122.2,191.7c-4.2,11.7-14.6,21.1-21.2,18.9c-10.8-3.5-18.6-11.9-16.7-30.5c2.2-21.9,19-24.4,28.9-21.6
		C123.1,161.3,126.9,178.8,122.2,191.7z"/>
	<path class="st52" d="M68,219l-9,4l14.6,18.8L69,250c0,0,16.5,12.4,21.5,36.4c5,24,4.5,44.5,4.5,44.5s1.2-48.7-1.2-58
		C89.1,254.8,68,219,68,219z"/>
	<path class="st52" d="M94,223c0,0,12.4,30.8,14.4,40c2,9.2,2.4,54,2.4,54s5.8-39.1,4.1-50.6s-4.1-22-4.1-22l-7.7-5.7
		c0,0-1.5-15.5-2.3-15.7C100.1,222.8,94,223,94,223z"/>
	<path class="st53" d="M86.3,340.7c24.7-7.5,21.7-11.2,30.7-7c9,4.2,20.2,7.1,15,8.5c-5.3,1.4-13.2-3-13.2-3s1.2,6.7-3.2,8.7
		c-4.5,2-24.4,2.7-35.5-0.4C68.8,344.4,86.3,340.7,86.3,340.7z"/>
	<path class="st209" d="M85.6,339.5h4.9l-2.5,14c0,0-9.7-1.4-9-2.4S85.6,339.5,85.6,339.5z"/>
	<path class="st8" d="M38.9,228.5c-9.6,16.9-12.7,26-20.5,57.6c-7.8,31.5-11,45.9-2.3,50c7.2,3.4,59.4,19.1,65.7,17.2
		c2.9,0.2,7.3-14.8,7.3-14.8l-47.5-21.2c0,0,13.8-32.8,16.1-54.4c2.4-21.6-8.2-34.4-13.5-34.4S38.9,228.5,38.9,228.5z"/>
	<path class="st211" d="M88.8,181.6c-2.3,7.3-1.3,8.8-4.5,9.5c-3.2,0.7-6.2-2.5-7.1-7c-1-4.5,0.9-8.7,4.1-9.4
		C84.5,174,90.2,177.2,88.8,181.6z"/>
	<path class="st208" d="M126.6,168.3C114,190.7,89,187.4,73.8,179.7c-12.4-6.3,35.4-30.1,35.4-30.1L126.6,168.3z"/>
	<path class="st208" d="M85.6,149.6c-4.7-14.1-23.8-10.8-32.5,8c-8.7,18.7,4.6,31.3,12.6,26.7C73.8,179.7,85.6,149.6,85.6,149.6z"/>
	<g>
		<path class="st19" d="M435.5,234c-0.2-0.4-0.8-0.4-1,0c-11.9,25-26.4,88.7-30.4,92.2c-4.1,3.6-27.7,17.7-31.7,24.5
			c-4.1,6.8-2.3,4.5-0.5,5c1.7,0.4,94.9,0.9,103.7,0.9c0.3,0,0.6-0.3,0.5-0.6c-1.2-7.1-11.8-69.7-13-70.1
			C461.8,285.5,439.2,241.3,435.5,234z"/>
		<path class="st52" d="M418.1,356.3c18.8,0.1,38.7,0.2,49.6,0.3l-15-89.5c-8-15.5-17.8-33.1-17.8-33.1c-1.5,3.1-3,5-4.5,9.1
			c-1.6,67.3,8.1,86.1,0.9,98.1C425.6,350.6,420.5,354.8,418.1,356.3z"/>
	</g>
	<g>
		<path class="st19" d="M498,204.9c17,15.7,54.9,30.6,54.9,30.6s5.8,53.2,1.8,83.3c-3.9,30.1-1.7,36.2-1.7,36.2l-81.8,0.7
			c0,0-6.8-15.2-26-60.5c-12.2-28.8-10-61.1-10-61.1l47.6-21.4L498,204.9z"/>
		<path class="st52" d="M474.8,355.1H553c0,0-2.2-6.1,1.7-36.2c3.2-24.8-0.1-65.2-1.4-78.8l-7.1-3c-17.8,5.1-28.1,31.7-31.1,57.8
			c-2,17.4-30.8,34.5-49.7,44C471.6,350.6,474.8,355.1,474.8,355.1z"/>
		<path class="st8" d="M478.1,220l6.7,0.7l2.6,7.9c0,0-5.9,6.9-6,9.6c-0.1,2.8,1.3,13.1,1.4,22.5c0.1,9.4-3.4,46.7-1.8,69.6
			c1.6,22.9,1.6,22.9,1.6,22.9l-13.4,0.5c0,0-0.7-25.2,0-52.1c0.7-26.9,8.4-63.4,8.4-63.4l-3-9.3L478.1,220z"/>
		<path class="st185" d="M455.7,150.3c-9.4,21,1.9,40.4,1.5,39.6c-0.3-0.8,14.3-35.4,14.3-35.4L455.7,150.3z"/>
		<path class="st186" d="M491.4,165.8l11.9,43.7c0.3,1.2,0,2.5-0.8,3.5c-2.8,3.5-6.8,10.6-14.8,12.8c-1.6,0.4-3.5,0.6-5.1,0.6
			c-1.6,0-3.1-1.1-3.4-2.8l-8-41.4L491.4,165.8z"/>
		<path class="st187" d="M489.1,169.5l-4.4,1.8l-13.4,11l5.2,26.3l2.1,10.5C490.7,211.4,495.2,198.9,489.1,169.5z"/>
		<path class="st186" d="M488.3,185.6c0,14.6-8.8,26.1-19.7,25.7c-10.9-0.4-17.5-8.6-19.7-27.2c-1.7-14.6,2.5-31.5,13.4-31.1
			C473.2,153.5,488.3,171,488.3,185.6z"/>
		<path class="st19" d="M552.9,235.5c15.8,3.6,18.7,35.7,23.9,69.5c0.6,3.9,3.6,36.9,3.6,36.9s0.3,6-5.7,9.1
			c-5.2,2.6-7.3,4.5-37.2,4.8c-28.8,0.3-65.8-0.9-65.8-0.9s-0.3-10.7,2.6-15.9c4.4-7.9,49.9-19.2,54.1-19.8
			c0.6-8.5-4.2-39.1,2.4-59.9c4.5-14.3,9.4-21.8,15.5-23.7C548.4,235.1,550.5,235,552.9,235.5z"/>
		<path class="st52" d="M487.9,355.6c14.2,0.2,33.6,0.4,49.6,0.3c29.9-0.3,32-2.3,37.2-4.8c6-3,6.3-8.2,6.3-8.2s-3.1-35.1-3.6-39
			c-3.3-22.7-6.9-48.6-15.3-61.2c7.9,23,9.1,42.5,9.3,50.8c0.1,4.2-0.3,10-1.5,14c-1.4,4.5-4.8,7.3-10.3,5.7
			c-10.9-3-24.5,3.3-24.5,3.3s10.3-3.6,20-0.3c9.7,3.3,29.6,25.4,7.9,33.6C556.2,352.3,516.3,354.4,487.9,355.6z"/>
		<path class="st19" d="M476.7,340.1c0,0,4-6.9,12.3-6.9c8.3,0,7.7,13.5,6.5,17.9c-1.2,4.4-6,4.6-6,4.6l-16.6-0.4L476.7,340.1z"/>
		<path class="st212" d="M313,356h138.9c0-3.8-3.1-7-7-7H313V356z"/>
		<path class="st186" d="M473.7,339c-16.7-7.7-21.5-5.7-25.3-7.2c-9.4-3.6-12-1.4-19.7,15.1c-1.5,3.3,2.1,3.8,5.7,4.1
			c3.6,0.3,8.6-6.3,10.1-7c1.5-0.7,5.3-0.8,5.3-0.8s-1.2-0.1-3.3,3.4c-2.1,3.5-4.4,4.7-1.6,4.9c2.8,0.2,3.6-4.3,8.7-2.9
			c5.1,1.4,4.1,6.3,17.2,5.9c12.4-0.4,21.7,0.8,22.2-7c0.4-7.4,1.6-11.1-5.4-13C482.3,333,473.7,339,473.7,339z"/>
		<path class="st189" d="M473.9,339c11.7-0.3,7,13.8,5.7,14.9c-1.3,1.1,6.4,1,6.4,1s4.1-5.5,1.6-12.4c-2.4-6.9-8.4-7.7-8.4-7.7
			l-5.4,2.4L473.9,339z"/>
		<path class="st185" d="M485.5,336.2c0.1,1.8-2.8,3.4-6.4,3.6c-3.6,0.2-6.6-1.1-6.7-2.9c-0.1-1.8,2.8-3.4,6.4-3.6
			C482.4,333.1,485.4,334.4,485.5,336.2z"/>
		<path class="st190" d="M484.5,335.4c0.1,1.6-2.5,3-5.7,3.2c-3.2,0.2-5.9-1-6-2.6c-0.1-1.6,2.5-3,5.7-3.2
			C481.7,332.6,484.4,333.8,484.5,335.4z"/>
		<path class="st191" d="M482.4,334.9c0.1,1.2-1.8,2.2-4.1,2.3c-2.3,0.1-4.3-0.7-4.3-1.9c-0.1-1.2,1.8-2.2,4.1-2.3
			C480.4,332.9,482.3,333.8,482.4,334.9z"/>
		<path class="st186" d="M383,340.1c8.6-4.8,19.1-3.2,23,1.6c3.8,4.8,4.5,8-4.1,8c-8.6,0-25.8,0.6-28.7,0.3S383,340.1,383,340.1z"/>
		<path class="st186" d="M394.2,338.4c9.2-2.2,15.6,3.1,23.3,8.3c6.7,4.5,8,8.8,0.6,5.1c-10.8-5.4-17.2-6.1-17.2-6.1L394.2,338.4z"
			/>
		<path class="st186" d="M383.8,342.6c-4.7,0-8.7-1.5-12-1.2c-3.3,0.3-13.7,11-12.1,11.8c0.1,0.1,0.2,0.1,0.4,0.2
			c2.5,0.9,5.3-0.1,6.7-2.3c1.5-2.4,3.9-5.1,6.7-4.1c4.7,1.6,9.6,1.5,9.6,1.5L383.8,342.6z"/>
		<path class="st192" d="M384.6,351.5c-4.8-1.9,2.9-17.9,5.4-17.9c2.6,0,12.1,7.7,12.1,7.7s-2.2,1.3-9.9-1.3
			c-1.9-0.6-3.5,10.2-5.7,11.5C384.2,352.8,384.6,351.5,384.6,351.5z"/>
		<polygon class="st213" points="476.8,210.4 479,222.4 472.5,236.6 465.4,221.5 		"/>
		<path d="M450.5,192.4c2.8,17.3,9.2,19.2,13.7,20.8c4.5,1.6,21.6-5.6,23.4-10.3c4.6-12.2-2.8-21.3-1.3-21.4
			c1.5-0.1,3.7,3.9,8.6,8.7c0.5,0.4,3.6,3.4,3.5,2.2c-1.1-15.8,6.1-22.1,1.3-37.4c-3.5-11.3-10.7-9-10.7-9s-6.5-8.8-21-5
			c-9.7,2.6-17.8,8-27.4,12.5c-9.7,4.5,16.7,23.4,28.3,12.6c11.6-10.8,8.5,8.9,10.9,9.9c2.3,1.1,1,0,3.7,9.3
			c2.7,9.3-8.2,17.7-11.5,19.1c-10.5,4.6-12.7,3.2-15.9-0.6C453.3,200.7,450.5,192.4,450.5,192.4z"/>
		<path class="st186" d="M495.1,178.6c-0.5,4.6-3,8-5.7,7.6c-2.7-0.4-3.4-3.9-4.1-9c-0.6-4.6,3-8,5.7-7.6
			C493.8,170,495.6,174,495.1,178.6z"/>
		<path class="st213" d="M502.3,205.9l11.9,11.1c0,0-22.9,21.5-24.8,21.3c-2-0.2-5.3-18.3-5.3-18.3L502.3,205.9z"/>
		<path class="st52" d="M484.4,219.7c-2.2,1-1.5,4.2-2.4,5.2c-0.9,1.1-1.5,1.4-2.2-0.1c-0.7-1.5-0.6-4.9-1.2-5.1
			c-0.6-0.2-5,13.6-5,13.6s3.2-8.8,4-7.9c0.7,1,0.2,1.9,2.8,2c2.7,0.2,6.1-1,6.1-1L484.4,219.7z"/>
	</g>
	<g>
		<path class="st212" d="M312.9,354H387l-31.5-69.3c-0.9-2-2.9-3.3-5.2-3.3h-67.1c-1.6,0-2.7,1.7-2,3.1L312.9,354z"/>
		<path class="st90" d="M276.1,281.4h68.5c2.2,0,4.2,1.3,5.2,3.3l31.5,69.3h-75.6L274,284.5C273.4,283,274.5,281.4,276.1,281.4z"/>
		<path class="st0" d="M318.8,321.7c2.6,5.4,6.8,8.7,9.4,7.5c2.6-1.3,2.6-6.6,0-12c-2.6-5.4-6.8-8.7-9.4-7.5
			C316.2,311,316.2,316.3,318.8,321.7z"/>
	</g>
	<g>
		<path class="st34" d="M578.3,365.3H34.2c-1,0-1.7-0.8-1.7-1.7v-7c0-1,0.8-1.7,1.7-1.7h544.1c1,0,1.7,0.8,1.7,1.7v7
			C580,364.5,579.2,365.3,578.3,365.3z"/>
	</g>
	<g>
		<g>
			<path class="st90" d="M400.5,76L400.5,76c-4.1,0-7.4-3.3-7.4-7.4v0c0-4.1,3.3-7.4,7.4-7.4l0,0c4.1,0,7.4,3.3,7.4,7.4v0
				C408,72.7,404.6,76,400.5,76z"/>
		</g>
		<g>
			<g>
				<g>
					<path class="st134" d="M400.1,71.8l-3.8-3.3c-0.3-0.3-0.3-0.7-0.1-1c0.3-0.3,0.7-0.3,1-0.1l2.7,2.3l3.8-4.2
						c0.3-0.3,0.7-0.3,1-0.1c0.3,0.3,0.3,0.7,0.1,1L400.1,71.8z"/>
				</g>
			</g>
		</g>
	</g>
	<g>
		<g>
			<g>
				<path class="st90" d="M404.6,53.4h-8.1c-1.9,0-3.4-1.5-3.4-3.4v-8.1c0-1.9,1.5-3.4,3.4-3.4h8.1c1.9,0,3.4,1.5,3.4,3.4V50
					C408,51.9,406.5,53.4,404.6,53.4z M396.5,39.5c-1.3,0-2.4,1.1-2.4,2.4V50c0,1.3,1.1,2.4,2.4,2.4h8.1c1.3,0,2.4-1.1,2.4-2.4v-8.1
					c0-1.3-1.1-2.4-2.4-2.4H396.5z"/>
			</g>
		</g>
	</g>
	<g>
		<g>
			<g>
				<path class="st90" d="M426.9,76h-8.1c-1.9,0-3.4-1.5-3.4-3.4v-8.1c0-1.9,1.5-3.4,3.4-3.4h8.1c1.9,0,3.4,1.5,3.4,3.4v8.1
					C430.3,74.5,428.8,76,426.9,76z M418.8,62.1c-1.3,0-2.4,1.1-2.4,2.4v8.1c0,1.3,1.1,2.4,2.4,2.4h8.1c1.3,0,2.4-1.1,2.4-2.4v-8.1
					c0-1.3-1.1-2.4-2.4-2.4H418.8z"/>
			</g>
		</g>
	</g>
	<g>
		<g>
			<path class="st90" d="M422.9,53.4L422.9,53.4c-4.1,0-7.4-3.3-7.4-7.4v0c0-4.1,3.3-7.4,7.4-7.4h0c4.1,0,7.4,3.3,7.4,7.4v0
				C430.3,50.1,427,53.4,422.9,53.4z"/>
		</g>
		<g>
			<g>
				<g>
					<path class="st134" d="M422.4,49.2l-3.8-3.3c-0.3-0.3-0.3-0.7-0.1-1c0.3-0.3,0.7-0.3,1-0.1l2.7,2.3l3.8-4.2
						c0.3-0.3,0.7-0.3,1-0.1c0.3,0.3,0.3,0.7,0.1,1L422.4,49.2z"/>
				</g>
			</g>
		</g>
	</g>
	<g>
		<g>
			<g>
				<path class="st90" d="M426.9,30.8h-8.1c-1.9,0-3.4-1.5-3.4-3.4v-8.1c0-1.9,1.5-3.4,3.4-3.4h8.1c1.9,0,3.4,1.5,3.4,3.4v8.1
					C430.3,29.3,428.8,30.8,426.9,30.8z M418.8,16.9c-1.3,0-2.4,1.1-2.4,2.4v8.1c0,1.3,1.1,2.4,2.4,2.4h8.1c1.3,0,2.4-1.1,2.4-2.4
					v-8.1c0-1.3-1.1-2.4-2.4-2.4H418.8z"/>
			</g>
		</g>
	</g>
	<g>
		<g>
			<path class="st90" d="M400.5,30.8L400.5,30.8c-4.1,0-7.4-3.3-7.4-7.4v0c0-4.1,3.3-7.4,7.4-7.4h0c4.1,0,7.4,3.3,7.4,7.4v0
				C408,27.5,404.6,30.8,400.5,30.8z"/>
		</g>
		<g>
			<g>
				<g>
					<path class="st134" d="M400.1,26.6l-3.8-3.3c-0.3-0.3-0.3-0.7-0.1-1c0.3-0.3,0.7-0.3,1-0.1l2.7,2.3l3.8-4.2
						c0.3-0.3,0.7-0.3,1-0.1c0.3,0.3,0.3,0.7,0.1,1L400.1,26.6z"/>
				</g>
			</g>
		</g>
	</g>
	<g>
		<path class="st179" d="M378.7,45.3c0,4-1.5,7.7-3.9,10.6c-3,3.6-7.5,5.9-12.6,5.9c-5.2,0-10-2.5-13.1-6.4
			c-2.2-2.8-3.4-6.3-3.4-10.1c0-9.1,7.4-16.5,16.5-16.5C371.3,28.8,378.7,36.2,378.7,45.3z"/>
		<path class="st178" d="M374,54.2c-0.1-0.1-0.2-0.1-0.3-0.2c0,0,0,0,0,0l0,0c-0.7-0.4-2.8-1.5-7-2.7c0,0,0,0,0,0
			c-0.8-0.2-1.3-0.4-1.5-0.4l-0.4-0.6c-0.1-0.6,0-1.4,0-2c0.6-0.7,1.1-1.8,1.4-3.4c0.1,0.1,0.2-0.1,0.2-0.1
			c-0.1-0.1,0.8-2.2,0.6-2.6c-0.1-0.3-0.3-0.2-0.4-0.2c0-0.1,0-0.2,0.1-0.4c0,0,0.3-3.2-1.3-4.9c-0.2-0.2-0.8-0.2-0.8-0.2
			c-2.6-0.8-4.1-0.4-5.1,0c-1.4,1.2-1.5,3.2-1.5,4.3c0,0.3,0.1,0.5,0.1,0.8c0,0,0,0,0,0c0,0.1,0,0.2,0,0.3c-0.1-0.1-0.3-0.1-0.4,0.1
			c-0.2,0.5,0.5,2.5,0.5,2.7c0,0,0.1,0.2,0.2,0.1c0,0,0,0,0,0c0.3,1.8,0.8,2.9,1.4,3.6c0,0.7-0.1,1.6-0.2,2.2l-0.6,0.7l0,0
			c0,0,0,0,0,0c0,0-0.1,0-0.1,0c0,0,0,0,0,0c-7.2,1.9-9.3,3.3-9.3,3.3c-0.2,0.1-0.4,0.4-0.6,0.9c3,3.9,7.8,6.4,13.1,6.4
			c5.1,0,9.6-2.3,12.6-5.9C374.6,55.2,374.3,54.5,374,54.2z"/>
	</g>
</g>
</svg>
